<svg width="306" height="52" viewBox="0 0 306 52" fill="none" xmlns="http://www.w3.org/2000/svg">
<g clip-path="url(#clip0)">
<path d="M156.645 12.0601L154.951 10.4543C154.027 11.2251 152.791 11.6747 151.386 11.6747C148.166 11.6747 145.926 9.37831 145.926 6.07823C145.926 2.77816 148.166 0.48175 151.386 0.48175C154.598 0.48175 156.846 2.77816 156.846 6.07823C156.846 7.55564 156.396 8.84034 155.593 9.79584L157.303 11.4178L156.645 12.0601ZM155.922 6.07823C155.922 3.30007 154.06 1.35695 151.386 1.35695C148.72 1.35695 146.833 3.30007 146.833 6.07823C146.833 8.8564 148.712 10.7995 151.386 10.7995C154.052 10.7995 155.922 8.8564 155.922 6.07823Z" fill="white"/>
<path d="M165.685 3.85406V11.474H164.883L164.866 10.1009C164.264 11.0243 163.228 11.5783 162.016 11.5783C160.041 11.5783 158.82 10.3097 158.82 8.19796V3.85406H159.696V8.15782C159.696 9.83596 160.579 10.7674 162.088 10.7674C163.71 10.7674 164.802 9.57902 164.802 8.03738V3.85406H165.685Z" fill="white"/>
<path d="M175.513 3.85409V11.474H174.694V9.96445C174.108 10.9681 172.936 11.6185 171.531 11.6185C169.291 11.6185 167.717 9.98051 167.717 7.66805C167.717 5.35559 169.291 3.71759 171.531 3.71759C172.936 3.71759 174.108 4.36797 174.694 5.3877V3.85409H175.513ZM174.638 7.66805C174.638 5.78917 173.386 4.53659 171.611 4.53659C169.853 4.53659 168.6 5.78917 168.6 7.66805C168.6 9.54693 169.853 10.7995 171.611 10.7995C173.386 10.7995 174.638 9.54693 174.638 7.66805Z" fill="white"/>
<path d="M185.02 7.13007V11.482H184.137V7.17021C184.137 5.49207 183.262 4.56066 181.696 4.56066C180.058 4.56066 178.934 5.74901 178.934 7.29065V11.474H178.059V3.85408H178.862L178.878 5.2271C179.48 4.30372 180.548 3.74969 181.792 3.74969C183.8 3.74969 185.02 5.01031 185.02 7.13007Z" fill="white"/>
<path d="M192.055 11.217C191.549 11.4659 191.003 11.6185 190.481 11.6185C188.875 11.6185 188.305 10.7112 188.305 9.12136V4.64096H186.699V3.85408H188.305V1.67008L189.172 1.57373V3.85408H191.718V4.64096H189.172V9.11333C189.172 10.117 189.421 10.8075 190.529 10.8075C190.899 10.8075 191.396 10.655 191.766 10.4703L192.055 11.217Z" fill="white"/>
<path d="M200.404 3.85406V11.474H199.601L199.585 10.1009C198.983 11.0243 197.947 11.5783 196.735 11.5783C194.76 11.5783 193.539 10.3097 193.539 8.19796V3.85406H194.414V8.15782C194.414 9.83596 195.298 10.7674 196.807 10.7674C198.429 10.7674 199.521 9.57902 199.521 8.03738V3.85406H200.404Z" fill="white"/>
<path d="M214.859 7.03375V11.474H213.984V7.09798C213.984 5.45999 213.197 4.56873 211.775 4.56873C210.354 4.56873 209.335 5.67678 209.335 7.21039V11.482H208.459V7.09798C208.459 5.45999 207.672 4.56873 206.251 4.56873C204.846 4.56873 203.826 5.67678 203.826 7.21039V11.482H202.951V3.85411H203.754L203.77 5.13078C204.324 4.23952 205.223 3.7417 206.283 3.7417C207.592 3.7417 208.564 4.37602 208.981 5.48408C209.535 4.37602 210.571 3.7417 211.792 3.7417C213.703 3.74973 214.859 4.98625 214.859 7.03375Z" fill="white"/>
<path d="M221.699 0.682495H222.607V11.482H221.699V0.682495Z" fill="white"/>
<path d="M232.313 7.13007V11.482H231.43V7.17021C231.43 5.49207 230.555 4.56066 228.989 4.56066C227.351 4.56066 226.227 5.74901 226.227 7.29065V11.474H225.352V3.85408H226.155L226.171 5.2271C226.773 4.30372 227.841 3.74969 229.085 3.74969C231.093 3.74969 232.313 5.01031 232.313 7.13007Z" fill="white"/>
<path d="M236.393 3.11542V3.85412H238.874V4.65706H236.393V11.474H235.518V4.65706H233.977V3.85412H235.518V3.11542C235.518 1.54166 236.209 0.489807 237.847 0.489807C238.433 0.489807 238.955 0.658424 239.453 1.04383L239.051 1.67816C238.666 1.3891 238.28 1.27669 237.863 1.27669C236.947 1.28472 236.393 1.77451 236.393 3.11542Z" fill="white"/>
<path d="M239.572 7.66806C239.572 5.38771 241.178 3.70154 243.507 3.70154C245.819 3.70154 247.441 5.37968 247.441 7.66806C247.441 9.95643 245.819 11.6346 243.507 11.6346C241.17 11.6346 239.572 9.9484 239.572 7.66806ZM246.558 7.66806C246.558 5.89356 245.289 4.53659 243.507 4.53659C241.7 4.53659 240.456 5.89356 240.456 7.66806C240.456 9.44255 241.708 10.7995 243.507 10.7995C245.289 10.7995 246.558 9.44255 246.558 7.66806Z" fill="white"/>
<path d="M254.475 4.22342L254.09 4.97818C253.688 4.72927 253.254 4.60883 252.797 4.60883C251.376 4.60883 250.348 5.88551 250.348 7.6038V11.474H249.473V3.85407H250.276L250.292 5.44389C250.83 4.37598 251.745 3.76575 252.837 3.76575C253.439 3.76575 254.041 3.93436 254.475 4.22342Z" fill="white"/>
<path d="M267.755 7.03375V11.474H266.88V7.09798C266.88 5.45999 266.093 4.56873 264.672 4.56873C263.251 4.56873 262.231 5.67678 262.231 7.21039V11.482H261.356V7.09798C261.356 5.45999 260.569 4.56873 259.148 4.56873C257.743 4.56873 256.723 5.67678 256.723 7.21039V11.482H255.848V3.85411H256.651L256.667 5.13078C257.221 4.23952 258.12 3.7417 259.18 3.7417C260.489 3.7417 261.46 4.37602 261.878 5.48408C262.432 4.37602 263.468 3.7417 264.688 3.7417C266.599 3.74973 267.755 4.98625 267.755 7.03375Z" fill="white"/>
<path d="M277.463 3.85409V11.474H276.644V9.96445C276.057 10.9681 274.885 11.6185 273.48 11.6185C271.24 11.6185 269.666 9.98051 269.666 7.66805C269.666 5.35559 271.24 3.71759 273.48 3.71759C274.885 3.71759 276.057 4.36797 276.644 5.3877V3.85409H277.463ZM276.587 7.66805C276.587 5.78917 275.335 4.53659 273.56 4.53659C271.802 4.53659 270.549 5.78917 270.549 7.66805C270.549 9.54693 271.802 10.7995 273.56 10.7995C275.335 10.7995 276.587 9.54693 276.587 7.66805Z" fill="white"/>
<path d="M284.658 11.217C284.152 11.4659 283.606 11.6185 283.085 11.6185C281.479 11.6185 280.909 10.7112 280.909 9.12136V4.64096H279.303V3.85408H280.909V1.67008L281.776 1.57373V3.85408H284.321V4.64096H281.776V9.11333C281.776 10.117 282.025 10.8075 283.133 10.8075C283.502 10.8075 284 10.655 284.369 10.4703L284.658 11.217Z" fill="white"/>
<path d="M285.982 1.50952C285.982 1.12411 286.28 0.827026 286.681 0.827026C287.099 0.827026 287.388 1.12411 287.388 1.50952C287.388 1.91099 287.099 2.20005 286.681 2.20005C286.28 2.20808 285.982 1.91099 285.982 1.50952ZM286.247 3.85411H287.123V11.474H286.247V3.85411Z" fill="white"/>
<path d="M289.146 7.66806C289.146 5.38771 290.752 3.70154 293.081 3.70154C295.393 3.70154 297.015 5.37968 297.015 7.66806C297.015 9.95643 295.393 11.6346 293.081 11.6346C290.752 11.6346 289.146 9.9484 289.146 7.66806ZM296.132 7.66806C296.132 5.89356 294.863 4.53659 293.081 4.53659C291.274 4.53659 290.03 5.89356 290.03 7.66806C290.03 9.44255 291.282 10.7995 293.081 10.7995C294.871 10.7995 296.132 9.44255 296.132 7.66806Z" fill="white"/>
<path d="M306.001 7.13007V11.482H305.117V7.17021C305.117 5.49207 304.242 4.56066 302.676 4.56066C301.038 4.56066 299.914 5.74901 299.914 7.29065V11.474H299.039V3.85408H299.842L299.858 5.2271C300.46 4.30372 301.528 3.74969 302.773 3.74969C304.78 3.74969 306.001 5.01031 306.001 7.13007Z" fill="white"/>
<path d="M155.289 17.3997V28.1992H154.381L147.532 18.869V28.1992H146.625V17.3997H147.548L154.365 26.6816V17.3997H155.289Z" fill="white"/>
<path d="M165.22 20.5713V28.1912H164.401V26.6817C163.815 27.6854 162.643 28.3357 161.238 28.3357C158.998 28.3357 157.424 26.6977 157.424 24.3853C157.424 22.0728 158.998 20.4348 161.238 20.4348C162.643 20.4348 163.815 21.0852 164.401 22.1049V20.5793H165.22V20.5713ZM164.345 24.3853C164.345 22.5064 163.093 21.2538 161.318 21.2538C159.56 21.2538 158.307 22.5064 158.307 24.3853C158.307 26.2642 159.56 27.5167 161.318 27.5167C163.093 27.5167 164.345 26.2642 164.345 24.3853Z" fill="white"/>
<path d="M172.414 27.9342C171.908 28.1831 171.362 28.3357 170.84 28.3357C169.235 28.3357 168.664 27.4283 168.664 25.8385V21.3581H167.059V20.5712H168.664V18.3872L169.532 18.2909V20.5712H172.077V21.3581H169.532V25.8305C169.532 26.8342 169.781 27.5247 170.889 27.5247C171.258 27.5247 171.756 27.3721 172.125 27.1875L172.414 27.9342Z" fill="white"/>
<path d="M173.748 18.2267C173.748 17.8413 174.045 17.5442 174.447 17.5442C174.864 17.5442 175.153 17.8413 175.153 18.2267C175.153 18.6282 174.864 18.9172 174.447 18.9172C174.037 18.9252 173.748 18.6282 173.748 18.2267ZM174.005 20.5713H174.88V28.1912H174.005V20.5713Z" fill="white"/>
<path d="M176.912 24.3852C176.912 22.1049 178.518 20.4187 180.847 20.4187C183.159 20.4187 184.781 22.0968 184.781 24.3852C184.781 26.6736 183.159 28.3517 180.847 28.3517C178.51 28.3517 176.912 26.6656 176.912 24.3852ZM183.898 24.3852C183.898 22.6107 182.629 21.2538 180.847 21.2538C179.04 21.2538 177.795 22.6107 177.795 24.3852C177.795 26.1597 179.048 27.5167 180.847 27.5167C182.629 27.5167 183.898 26.1597 183.898 24.3852Z" fill="white"/>
<path d="M193.756 23.8473V28.1992H192.873V23.8955C192.873 22.2173 191.998 21.2859 190.432 21.2859C188.794 21.2859 187.67 22.4743 187.67 24.0159V28.1992H186.795V20.5793H187.598L187.614 21.9524C188.216 21.029 189.284 20.475 190.529 20.475C192.536 20.4669 193.756 21.7275 193.756 23.8473Z" fill="white"/>
<path d="M203.472 20.5713V28.1912H202.653V26.6817C202.067 27.6854 200.895 28.3357 199.49 28.3357C197.25 28.3357 195.676 26.6977 195.676 24.3853C195.676 22.0728 197.25 20.4348 199.49 20.4348C200.895 20.4348 202.067 21.0852 202.653 22.1049V20.5793H203.472V20.5713ZM202.597 24.3853C202.597 22.5064 201.345 21.2538 199.57 21.2538C197.812 21.2538 196.559 22.5064 196.559 24.3853C196.559 26.2642 197.812 27.5167 199.57 27.5167C201.345 27.5167 202.597 26.2642 202.597 24.3853Z" fill="white"/>
<path d="M206.025 17.3997H206.901V28.1992H206.025V17.3997Z" fill="white"/>
<path d="M213.846 17.3997H214.753V27.316H220.831V28.1912H213.846V17.3997Z" fill="white"/>
<path d="M229.086 20.5713V28.1912H228.267V26.6817C227.68 27.6854 226.508 28.3357 225.103 28.3357C222.863 28.3357 221.289 26.6977 221.289 24.3853C221.289 22.0728 222.863 20.4348 225.103 20.4348C226.508 20.4348 227.68 21.0852 228.267 22.1049V20.5793H229.086V20.5713ZM228.21 24.3853C228.21 22.5064 226.958 21.2538 225.183 21.2538C223.425 21.2538 222.172 22.5064 222.172 24.3853C222.172 26.2642 223.425 27.5167 225.183 27.5167C226.958 27.5167 228.21 26.2642 228.21 24.3853Z" fill="white"/>
<path d="M240.199 24.3852C240.199 26.7298 238.609 28.3357 236.385 28.3357C234.964 28.3357 233.791 27.6853 233.221 26.6816L233.205 28.1912H232.402V17.3997H233.278V21.9925C233.864 21.037 235.004 20.4348 236.377 20.4348C238.609 20.4348 240.199 22.0406 240.199 24.3852ZM239.324 24.3852C239.324 22.5064 238.071 21.2538 236.297 21.2538C234.538 21.2538 233.286 22.5064 233.286 24.3852C233.286 26.2641 234.538 27.5167 236.297 27.5167C238.071 27.5167 239.324 26.2641 239.324 24.3852Z" fill="white"/>
<path d="M241.732 24.3852C241.732 22.1049 243.338 20.4187 245.667 20.4187C247.979 20.4187 249.601 22.0968 249.601 24.3852C249.601 26.6736 247.979 28.3517 245.667 28.3517C243.33 28.3517 241.732 26.6656 241.732 24.3852ZM248.718 24.3852C248.718 22.6107 247.449 21.2538 245.667 21.2538C243.86 21.2538 242.616 22.6107 242.616 24.3852C242.616 26.1597 243.868 27.5167 245.667 27.5167C247.449 27.5167 248.718 26.1597 248.718 24.3852Z" fill="white"/>
<path d="M256.635 20.9406L256.25 21.6954C255.848 21.4465 255.415 21.3261 254.957 21.3261C253.536 21.3261 252.508 22.6027 252.508 24.321V28.1912H251.633V20.5713H252.436L252.452 22.1611C252.99 21.0932 253.905 20.483 254.997 20.483C255.599 20.483 256.202 20.6516 256.635 20.9406Z" fill="white"/>
<path d="M264.922 20.5713V28.1912H264.103V26.6817C263.516 27.6854 262.344 28.3357 260.939 28.3357C258.699 28.3357 257.125 26.6977 257.125 24.3853C257.125 22.0728 258.699 20.4348 260.939 20.4348C262.344 20.4348 263.516 21.0852 264.103 22.1049V20.5793H264.922V20.5713ZM264.038 24.3853C264.038 22.5064 262.786 21.2538 261.011 21.2538C259.253 21.2538 258 22.5064 258 24.3853C258 26.2642 259.253 27.5167 261.011 27.5167C262.794 27.5167 264.038 26.2642 264.038 24.3853Z" fill="white"/>
<path d="M272.108 27.9342C271.602 28.1831 271.056 28.3357 270.534 28.3357C268.928 28.3357 268.358 27.4283 268.358 25.8385V21.3581H266.752V20.5712H268.358V18.3872L269.225 18.2909V20.5712H271.77V21.3581H269.225V25.8305C269.225 26.8342 269.474 27.5247 270.582 27.5247C270.951 27.5247 271.449 27.3721 271.819 27.1875L272.108 27.9342Z" fill="white"/>
<path d="M273.088 24.3852C273.088 22.1049 274.694 20.4187 277.022 20.4187C279.335 20.4187 280.957 22.0968 280.957 24.3852C280.957 26.6736 279.335 28.3517 277.022 28.3517C274.686 28.3517 273.088 26.6656 273.088 24.3852ZM280.073 24.3852C280.073 22.6107 278.805 21.2538 277.022 21.2538C275.216 21.2538 273.971 22.6107 273.971 24.3852C273.971 26.1597 275.224 27.5167 277.022 27.5167C278.805 27.5167 280.073 26.1597 280.073 24.3852Z" fill="white"/>
<path d="M287.991 20.9406L287.605 21.6954C287.204 21.4465 286.77 21.3261 286.312 21.3261C284.891 21.3261 283.863 22.6027 283.863 24.321V28.1912H282.988V20.5713H283.791L283.807 22.1611C284.345 21.0932 285.261 20.483 286.353 20.483C286.955 20.483 287.557 20.6516 287.991 20.9406Z" fill="white"/>
<path d="M296.059 20.5713L291.153 31.8606H290.182L291.804 28.143L288.656 20.5713H289.612L291.338 24.7947L292.294 27.1233L293.281 24.7947L295.104 20.5713H296.059V20.5713Z" fill="white"/>
<path d="M136.749 47.2529H103.314V0.642334H123.565V32.4708H119.71V4.50447H107.177V43.3988H136.749V47.2529Z" fill="white"/>
<path d="M35.5381 40.1951L33.7877 41.255L40.5725 51.1151H45.2536L39.1754 42.2828C42.0339 39.9221 47.5741 34.0446 47.5741 23.9436C47.5741 10.7433 36.9031 0 23.7911 0C10.6791 0 0 10.7433 0 23.9517C0 37.16 10.6711 47.9033 23.7911 47.9033V44.0492C12.7988 44.0412 3.85411 35.0322 3.85411 23.9517C3.85411 12.8711 12.7988 3.85411 23.7911 3.85411C34.7833 3.85411 43.72 12.8711 43.72 23.9436C43.72 35.0242 35.8673 39.9864 35.5381 40.1951Z" fill="white"/>
<path d="M90.9732 0.642334V41.2148L69.1172 27.6211V32.1577L94.8353 48.1522V0.642334H90.9732Z" fill="white"/>
<path d="M80.0454 15.7135L54.6484 0.0883179V47.2529H58.5106V6.98556L80.0454 20.2421V15.7135Z" fill="white"/>
<path d="M155.859 36.4614V47.261H154.052V42.62H148.424V47.261H146.617V36.4614H148.424V40.9338H154.052V36.4614H155.859Z" fill="white"/>
<path d="M159.537 42.7805V36.4534H161.328V42.7484C161.328 44.6112 162.436 45.7996 164.162 45.7996C165.888 45.7996 167.004 44.6112 167.004 42.7484V36.4534H168.795V42.7805C168.795 45.6631 167.004 47.4697 164.17 47.4697C161.32 47.4697 159.537 45.6631 159.537 42.7805Z" fill="white"/>
<path d="M181.723 36.4614V47.261H180.085L174.255 39.5447L174.271 42.9813V47.2529H172.465V36.4614H174.103L179.932 44.1777L179.916 40.9499V36.4614H181.723Z" fill="white"/>
<path d="M194.865 41.1185V45.7033C193.661 46.9077 192.239 47.4778 190.473 47.4778C187.109 47.4778 184.893 45.2536 184.893 41.8652C184.893 38.5651 187.221 36.2527 190.601 36.2527C192.143 36.2527 193.548 36.8228 194.616 37.9228L193.46 39.079C192.737 38.3564 191.637 37.9228 190.593 37.9228C188.297 37.9228 186.707 39.5126 186.707 41.8733C186.707 44.2821 188.185 45.8237 190.489 45.8237C191.565 45.8237 192.448 45.5427 193.219 44.9485V42.7244H190.192V41.1346H194.865V41.1185Z" fill="white"/>
<path d="M205.464 45.0208H199.667L198.679 47.261H196.736L201.578 36.4614H203.585L208.411 47.261H206.452L205.464 45.0208ZM200.358 43.3828H204.766L202.558 38.2761L200.358 43.3828Z" fill="white"/>
<path d="M215.004 43.5674H212.812V47.2529H211.006V36.4614H216.064C218.377 36.4614 219.886 37.8826 219.886 40.0265C219.886 41.817 218.818 43.0937 217.092 43.4631L220.376 47.261H218.128L215.004 43.5674ZM216.056 38.1235H212.804V41.9214H216.056C217.333 41.9214 218.112 41.2148 218.112 40.0265C218.104 38.8462 217.333 38.1235 216.056 38.1235Z" fill="white"/>
<path d="M227.538 42.893V47.261H225.747V42.893L221.508 36.4614H223.652L226.647 41.1827L229.73 36.4614H231.906L227.538 42.893Z" fill="white"/>
<path d="M23.7911 29.7248C20.756 29.4919 18.3472 27.0751 18.3472 24.1122C18.3472 20.9968 20.9969 18.4596 24.2568 18.4596C25.6941 18.4596 27.0751 18.9574 28.151 19.8647L30.6964 16.8296C28.9058 15.3281 26.6255 14.5091 24.2568 14.5091C18.8129 14.5091 14.3887 18.8209 14.3887 24.1203C14.3887 29.2671 18.564 33.4424 23.7831 33.6833V29.7248H23.7911Z" fill="white"/>
</g>
<defs>
<clipPath id="clip0">
<rect width="306" height="51.1151" fill="white"/>
</clipPath>
</defs>
</svg>
